<svg data-v-423bf9ae="" xmlns="http://www.w3.org/2000/svg" viewBox="0 0 357 90" class="iconLeft"><!----><!----><!----><g data-v-423bf9ae="" id="5e8b970d-2fe7-41f7-8bf4-1380c83ebfad" fill="#200CDB" transform="matrix(5.813953660298242,0,0,5.813953660298242,108.77905929240609,0.9302297911601585)"><path d="M2.40 2.42L0.21 2.42L4.32 12.67L6.37 12.67L10.47 2.42L8.28 2.42L5.31 9.93L2.40 2.42ZM12.89 7.82L12.14 6.66Q13.44 5.84 15.15 5.84L15.15 5.84Q16.38 5.84 17.10 6.52Q17.81 7.21 17.81 8.57L17.81 8.57L17.81 12.67L15.90 12.67L15.90 12.13Q15.07 12.67 14.40 12.67L14.40 12.67Q13.03 12.67 12.35 12.09Q11.66 11.51 11.66 10.49L11.66 10.49Q11.66 9.53 12.31 8.78Q12.95 8.03 14.40 8.03L14.40 8.03Q15.06 8.03 15.90 8.44L15.90 8.44L15.90 8.23Q15.89 7.48 14.81 7.41L14.81 7.41Q13.58 7.41 12.89 7.82L12.89 7.82ZM15.90 10.62L15.90 10.62L15.90 9.85Q15.63 9.32 14.60 9.32L14.60 9.32Q13.37 9.46 13.30 10.28L13.30 10.28Q13.37 11.09 14.60 11.16L14.60 11.16Q15.63 11.16 15.90 10.62ZM21.44 12.67L19.52 12.67L19.52 2.42L21.44 2.42L21.44 12.67ZM26.53 12.74Q25.04 12.74 24.04 11.74Q23.04 10.74 23.04 9.26L23.04 9.26Q23.04 7.77 24.04 6.77Q25.04 5.77 26.53 5.77L26.53 5.77Q28.02 5.77 29.02 6.77Q30.02 7.77 30.02 9.26L30.02 9.26Q30.02 10.75 29.02 11.74Q28.02 12.74 26.53 12.74L26.53 12.74ZM26.52 11.09L26.52 11.09Q27.30 11.09 27.79 10.56Q28.27 10.04 28.27 9.26L28.27 9.26Q28.27 8.48 27.79 7.96Q27.30 7.43 26.52 7.43L26.52 7.43Q25.74 7.43 25.26 7.96Q24.77 8.48 24.77 9.26L24.77 9.26Q24.77 10.04 25.26 10.56Q25.74 11.09 26.52 11.09ZM33.08 5.83L33.08 6.59Q33.81 5.84 34.86 5.84L34.86 5.84Q35.20 5.84 35.50 5.89L35.50 5.89L35.20 7.78Q34.86 7.48 34.24 7.46L34.24 7.46Q33.54 7.51 33.08 8.47L33.08 8.47L33.08 12.67L31.17 12.67L31.17 6.04L33.08 5.83ZM37.64 7.82L36.89 6.66Q38.19 5.84 39.89 5.84L39.89 5.84Q41.13 5.84 41.84 6.52Q42.56 7.21 42.56 8.57L42.56 8.57L42.56 12.67L40.65 12.67L40.65 12.13Q39.81 12.67 39.14 12.67L39.14 12.67Q37.78 12.67 37.09 12.09Q36.41 11.51 36.41 10.49L36.41 10.49Q36.41 9.53 37.05 8.78Q37.70 8.03 39.14 8.03L39.14 8.03Q39.81 8.03 40.65 8.44L40.65 8.44L40.65 8.23Q40.63 7.48 39.55 7.41L39.55 7.41Q38.32 7.41 37.64 7.82L37.64 7.82ZM40.65 10.62L40.65 10.62L40.65 9.85Q40.37 9.32 39.35 9.32L39.35 9.32Q38.12 9.46 38.05 10.28L38.05 10.28Q38.12 11.09 39.35 11.16L39.35 11.16Q40.37 11.16 40.65 10.62Z"></path></g><!----><g data-v-423bf9ae="" id="bdc4a154-4d45-4b84-b8f0-2a88909d53a1" transform="matrix(2.812499664723913,0,0,2.812499664723913,0.000005364417390296694,-0.018124997930137)" stroke="none" fill="#200CDB"><path d="M6.651 27h6.024v5.01h6.651V27h6.024v5.01H32v-32h-6.651V5h-6.024V.01h-6.651V5H6.651V.01H0v32h6.651V27zM19.325 7h6.024v4.666h-6.024V7zm0 6.666h6.024v4.667h-6.024v-4.667zm0 6.667h6.024V25h-6.024v-4.667zM6.651 7h6.024v4.666H6.651V7zm0 6.666h6.024v4.667H6.651v-4.667zm0 6.667h6.024V25H6.651v-4.667z"></path></g><!----></svg>